<?xml version="1.0" standalone="no"?>
<!DOCTYPE svg PUBLIC "-//W3C//DTD SVG 20010904//EN"
 "http://www.w3.org/TR/2001/REC-SVG-20010904/DTD/svg10.dtd">
<svg version="1.0" xmlns="http://www.w3.org/2000/svg"
 width="512.000000pt" height="512.000000pt" viewBox="0 0 512.000000 512.000000"
 preserveAspectRatio="xMidYMid meet">

<g transform="translate(0.000000,512.000000) scale(0.100000,-0.100000)"
fill="#000000" stroke="none">
<path d="M4705 5113 c-298 -16 -678 -87 -980 -182 -241 -77 -525 -197 -562
-237 -27 -29 -28 -45 -8 -84 21 -41 57 -48 114 -22 163 72 284 122 295 122 7
0 35 -33 61 -72 248 -375 638 -764 1013 -1013 39 -26 72 -54 72 -60 0 -22 -80
-206 -154 -355 -209 -420 -500 -800 -861 -1124 -439 -395 -960 -681 -1529
-841 l-130 -36 -413 413 -414 414 35 125 c253 899 810 1661 1591 2179 61 40
116 79 123 88 18 24 15 65 -8 90 -37 40 -76 30 -195 -48 -131 -87 -281 -199
-400 -299 -182 -153 -493 -481 -599 -632 l-15 -22 -78 32 c-181 72 -328 97
-521 88 -313 -16 -588 -141 -805 -366 -301 -313 -407 -752 -285 -1176 31 -107
119 -281 192 -376 71 -93 105 -116 149 -100 30 12 40 28 56 96 28 112 103 204
209 253 52 25 67 27 177 26 93 0 132 -5 173 -20 l53 -19 -85 -68 c-196 -156
-352 -385 -415 -609 -24 -85 -19 -115 25 -139 20 -10 34 -9 85 5 34 9 64 15
66 12 2 -2 -13 -39 -35 -82 -55 -110 -105 -242 -137 -358 -30 -109 -27 -131
20 -162 24 -16 30 -16 93 1 119 31 244 77 361 132 63 29 116 51 118 49 2 -2
-3 -29 -12 -61 -20 -69 -9 -108 36 -124 60 -21 271 62 427 166 95 64 235 196
302 287 l44 58 20 -53 c15 -42 20 -81 20 -174 1 -110 -1 -125 -25 -176 -51
-109 -134 -177 -258 -211 -110 -30 -131 -88 -54 -156 217 -191 544 -305 832
-289 319 17 599 144 818 369 79 82 93 112 70 157 -13 27 -13 32 5 58 10 15 30
49 44 76 22 42 28 47 57 47 44 0 69 29 95 110 39 120 53 194 59 326 9 189 -20
356 -89 521 l-31 74 22 15 c65 46 251 205 352 303 719 687 1149 1610 1219
2611 13 192 13 373 -1 403 -6 14 -22 30 -36 36 -22 10 -212 12 -368 4z m-2915
-4012 c-65 -86 -158 -177 -243 -240 -61 -44 -207 -124 -215 -116 -2 2 5 35 17
74 28 94 27 125 -5 150 -15 12 -36 21 -47 21 -11 0 -66 -26 -121 -59 -149 -87
-429 -212 -443 -198 -14 14 111 294 198 443 33 55 59 110 59 121 0 11 -9 32
-21 47 -25 32 -56 33 -150 5 -39 -12 -72 -19 -75 -16 -9 8 76 158 131 231 64
85 146 166 235 235 l65 49 337 -336 336 -335 -58 -76z"/>
<path d="M3135 4094 c-386 -85 -658 -446 -632 -837 13 -190 87 -363 214 -497
123 -131 262 -209 435 -244 440 -90 879 218 949 666 14 89 6 250 -16 333 -72
268 -301 496 -570 570 -87 24 -292 29 -380 9z m270 -389 c165 -43 276 -164
307 -335 23 -124 -22 -261 -116 -356 -232 -231 -627 -111 -693 211 -28 138 12
271 110 369 108 108 249 148 392 111z"/>
</g>
</svg>
